# This file uses centimeters as units for non-parametric coordinates.

mtllib pillar.mtl
g default
v -1.500000 -5.000000 1.500000
v 1.500000 -5.000000 1.500000
v -1.500000 8.427122 1.500000
v 1.500000 8.427122 1.500000
v -1.500000 8.427122 -1.500000
v 1.500000 8.427122 -1.500000
v -1.500000 -5.000000 -1.500000
v 1.500000 -5.000000 -1.500000
vt 0.336206 0.014994
vt 0.928687 0.004929
vt 0.629762 0.745238
vt 0.682000 0.511498
vt 0.047558 0.014734
vt 0.879762 0.995238
vt 0.375000 0.750000
vt 0.161035 0.522623
vt 0.375000 1.000000
vt 0.625000 1.000000
vt 0.795477 0.003609
vt 0.795477 0.511498
vt 0.222729 0.014994
vt 0.222729 0.522883
vt 0.815210 0.004929
vt 0.336206 0.522883
vt 0.682000 0.003609
vt 0.928687 0.512819
vt 0.879762 0.745238
vt 0.815210 0.512819
vt 0.161035 0.014734
vt 0.625000 0.750000
vt 0.629762 0.995238
vt 0.047558 0.522623
vn 0.000000 0.000000 1.000000
vn 0.000000 0.000000 1.000000
vn 0.000000 0.000000 1.000000
vn 0.000000 0.000000 1.000000
vn 0.000000 1.000000 0.000000
vn 0.000000 1.000000 0.000000
vn 0.000000 1.000000 0.000000
vn 0.000000 1.000000 0.000000
vn 0.000000 0.000000 -1.000000
vn 0.000000 0.000000 -1.000000
vn 0.000000 0.000000 -1.000000
vn 0.000000 0.000000 -1.000000
vn 0.000000 -1.000000 0.000000
vn 0.000000 -1.000000 0.000000
vn 0.000000 -1.000000 0.000000
vn 0.000000 -1.000000 0.000000
vn 1.000000 0.000000 0.000000
vn 1.000000 0.000000 0.000000
vn 1.000000 0.000000 0.000000
vn 1.000000 0.000000 0.000000
vn -1.000000 0.000000 0.000000
vn -1.000000 0.000000 0.000000
vn -1.000000 0.000000 0.000000
vn -1.000000 0.000000 0.000000
s off
g pCube1
usemtl lambert2SG
f 1/15/1 2/2/2 4/18/3 3/20/4
f 3/3/5 4/19/6 6/6/7 5/23/8
f 5/5/9 6/21/10 8/8/11 7/24/12
f 7/7/13 8/22/14 2/10/15 1/9/16
f 2/17/17 8/11/18 6/12/19 4/4/20
f 7/13/21 1/1/22 3/16/23 5/14/24
